VIDEO INFO:

Format                           : Matroska
Format version                   : Version 2
File size                        : 2.94 GiB
Duration                         : 1h 45mn
Overall bit rate                 : 3 994 Kbps
Encoded date                     : UTC 2011-08-07 12:23:36
Writing application              : mkvmerge v4.9.1 ('Ich will') gemaakt op Jul 11 2011 23:53:15
Writing library                  : libebml v1.2.1 + libmatroska v1.1.1

Video
ID                               : 1
Format                           : MPEG-4 Visual
Format profile                   : Advanced Simple@L5
Format settings, BVOP            : Yes
Format settings, QPel            : No
Format settings, GMC             : No warppoints
Format settings, Matrix          : Default (H.263)
Codec ID                         : XVID
Codec ID/Hint                    : XviD
Duration                         : 1h 45mn
Bit rate                         : 3 722 Kbps
Width                            : 1 280 pixels
Height                           : 544 pixels
Display aspect ratio             : 2.35:1
Frame rate                       : 25.000 fps
Color space                      : YUV
Chroma subsampling               : 4:2:0
Bit depth                        : 8 bits
Scan type                        : Progressive
Compression mode                 : Lossy
Bits/(Pixel*Frame)               : 0.214
Stream size                      : 2.74 GiB (93%)
Writing library                  : XviD 1.2.1 (UTC 2008-12-04)
Language                         : English

Audio
ID                               : 2
Format                           : AC-3
Format/Info                      : Audio Coding 3
Mode extension                   : CM (complete main)
Codec ID                         : A_AC3
Duration                         : 1h 45mn
Bit rate mode                    : Constant
Bit rate                         : 192 Kbps
Channel(s)                       : 2 channels
Channel positions                : Front: L R
Sampling rate                    : 48.0 KHz
Bit depth                        : 16 bits
Compression mode                 : Lossy
Stream size                      : 145 MiB (5%)
Language                         : English

Text
ID                               : 3
Format                           : UTF-8
Codec ID                         : S_TEXT/UTF8
Codec ID/Info                    : UTF-8 Plain Text
Language                         : Dutch

-------------------------------------

Verenigde Staten
Thriller / Horror
110 minuten

geregisseerd door John Carpenter
met Keith Gordon, John Stockwell en Alexandra Paul

Arnie Cunningham is een timide jongeman die niet goed in zijn vel zit en op school altijd het slachtoffer van grappen wordt. Op een dag ziet hij de wagen van zijn dromen, een Plymouth Fury uit 1957. De wagen heeft van de vorige eigenaar de naam "Christine" gekregen. Tegen de zin van zijn ouders koopt hij de wagen en begint hem te restaureren en helemaal op te poetsen. Langzamerhand begint Arnie's karakter te veranderen en algauw blijkt er een abnormale band te bestaan tussen Arnie en zijn auto. Vrienden kijken hulpeloos toe hoe Arnie volledig door de wagen ingepalmd wordt.

-Ondertiteling (nederlands) in film met de mogelijkheid deze aan/uit te schakelen.